<?xml version="1.0" standalone="no"?>
<svg xmlns="http://www.w3.org/2000/svg" xmlns:xlink="http://www.w3.org/1999/xlink">
<style type='text/css'><![CDATA[
    .ucdb { font-size: 12mm; font-family: 'ucdb'; fill: red; }
    .frame { fill: transparent; stroke: green; stroke-width: 100px; }
    .frame:hover { fill: yellow !important; }
    /* #g亥 { fill: orange !important; } */
  ]]></style>
	<symbol id="gA" viewBox="0 0 1024 1024">
		<path transform='scale( 1 -1 ) translate( 0 -1000 )' id="A" d="M939.618,891.62C827.173,1004.13,644.809,1004.13,532.364,891.62C532.364,891.62,65.494,430.287,65.494,430.287C-21.831,342.961,-21.831,200.82,65.494,113.494C152.82,26.169,294.929,26.169,382.223,113.494C382.223,113.494,849.092,574.86,849.092,574.86C911.587,637.354,911.587,738.632,849.092,801.126C786.598,863.589,685.288,863.589,622.857,801.126C622.857,801.126,271.89,450.159,271.89,450.159C259.378,437.615,259.378,417.423,271.89,404.88C284.401,392.368,304.625,392.368,317.137,404.88C317.137,404.88,668.136,755.879,668.136,755.879C705.575,793.287,766.438,793.287,803.877,755.879C841.316,718.44,841.316,657.546,803.877,620.107C803.877,620.107,337.008,158.773,337.008,158.773C274.514,96.279,173.268,96.279,110.773,158.773C48.279,221.236,48.279,322.546,110.773,385.008C110.773,385.008,573.067,841.861,573.067,841.861C660.553,929.347,802.437,929.347,889.795,841.861C977.345,754.343,977.345,612.587,889.859,525.101C889.859,525.101,543.435,178.645,543.435,178.645C530.86,166.101,530.86,145.91,543.435,133.398C555.947,120.854,576.17,120.854,588.682,133.398C588.682,133.398,939.618,484.366,939.618,484.366C1052.127,596.811,1052.127,779.175,939.618,891.62C939.618,891.62,939.618,891.62,939.618,891.62"/>
		</symbol>
	<symbol id="gB" viewBox="0 0 1024 1024">
		<path transform='scale( 1 -1 ) translate( 0 -1000 )' id="B" d="M1004.8,665.6C1004.8,665.6,908.8,793.536,908.8,793.536C905.056,798.56,900.608,802.912,896,807.072C896,807.072,896,960,896,960C896,995.328,867.328,1024,832,1024C832,1024,192,1024,192,1024C156.64,1024,128,995.328,128,960C128,960,128,807.04,128,807.04C123.392,802.912,118.944,798.592,115.2,793.6C115.2,793.6,19.232,665.632,19.232,665.632C6.816,649.12,0,628.672,0,608C0,608,0,576,0,576C0,523.072,43.072,480,96,480C96,480,96,480,96,480C96,480,96,64,96,64C96,28.672,124.672,0,160,0C160,0,864,0,864,0C899.328,0,928,28.672,928,64C928,64,928,480,928,480C928,480,928,480,928,480C980.928,480,1024,523.072,1024,576C1024,576,1024,608,1024,608C1024,628.672,1017.184,649.12,1004.8,665.6C1004.8,665.6,1004.8,665.6,1004.8,665.6M832,960C832,960,832,832,832,832C832,832,192,832,192,832C192,832,192,832,192,832C192,832,192,960,192,960C192,960,832,960,832,960C832,960,832,960,832,960M326.176,544C326.176,544,192.128,544,192.128,544C192.128,544,320.128,768,320.128,768C320.128,768,390.176,768,390.176,768C390.176,768,326.176,544,326.176,544C326.176,544,326.176,544,326.176,544M423.488,768C423.488,768,496,768,496,768C496,768,496,544,496,544C496,544,359.488,544,359.488,544C359.488,544,423.488,768,423.488,768C423.488,768,423.488,768,423.488,768M528,768C528,768,600.512,768,600.512,768C600.512,768,664.512,544,664.512,544C664.512,544,528,544,528,544C528,544,528,768,528,768C528,768,528,768,528,768M633.76,768C633.76,768,703.808,768,703.808,768C703.808,768,831.808,544,831.808,544C831.808,544,697.76,544,697.76,544C697.76,544,633.76,768,633.76,768C633.76,768,633.76,768,633.76,768M64,576C64,576,64,608,64,608C64,614.944,66.24,621.664,70.4,627.2C70.4,627.2,166.4,755.2,166.4,755.2C172.448,763.264,181.92,768,192,768C192,768,283.264,768,283.264,768C283.264,768,155.264,544,155.264,544C155.264,544,96,544,96,544C78.336,544,64,558.304,64,576C64,576,64,576,64,576M640,64C640,64,400,64,400,64C400,64,400,384,400,384C400,384,640,384,640,384C640,384,640,64,640,64C640,64,640,64,640,64M864,64C864,64,672,64,672,64C672,64,672,384,672,384C672,401.696,657.632,416,640,416C640,416,400,416,400,416C382.336,416,368,401.696,368,384C368,384,368,64,368,64C368,64,160,64,160,64C160,64,160,480,160,480C160,480,864,480,864,480C864,480,864,64,864,64C864,64,864,64,864,64M960,576C960,558.304,945.696,544,928,544C928,544,868.672,544,868.672,544C868.672,544,740.672,768,740.672,768C740.672,768,832,768,832,768C832,768,832,768,832,768C842.048,768,851.552,763.264,857.568,755.2C857.568,755.2,953.568,627.2,953.568,627.2C957.76,621.664,960,614.944,960,608C960,608,960,576,960,576C960,576,960,576,960,576"/>
		</symbol>
	<symbol id="gC" viewBox="0 0 1024 1024">
		<path transform='scale( 1 -1 ) translate( 0 -1000 )' id="C" d="M943.988,352.496C943.988,352.496,857.877,352.496,857.877,352.496C856.437,360.143,854.677,367.631,852.757,375.087C852.757,375.087,1006.323,451.854,1006.323,451.854C1022.131,459.758,1028.499,478.99,1020.627,494.798C1012.691,510.606,993.555,516.941,977.684,509.102C977.684,509.102,831.189,435.886,831.189,435.886C775.318,556.461,653.432,640.492,511.994,640.492C339.772,640.492,196.318,516.077,166.11,352.496C166.11,352.496,79.999,352.496,79.999,352.496C35.904,352.496,0,316.624,0,272.497C0,256.817,5.76,241.681,16.16,229.969C16.16,229.969,127.998,104.147,127.998,104.147C127.998,104.147,127.998,80.499,127.998,80.499C127.998,36.372,163.902,0.5,207.997,0.5C207.997,0.5,815.99,0.5,815.99,0.5C860.117,0.5,895.989,36.372,895.989,80.499C895.989,80.499,895.989,104.147,895.989,104.147C895.989,104.147,1007.795,229.969,1007.795,229.969C1018.227,241.681,1023.987,256.817,1023.987,272.497C1023.987,316.624,988.115,352.496,943.988,352.496C943.988,352.496,943.988,352.496,943.988,352.496M825.558,352.496C825.558,352.496,807.574,352.496,807.574,352.496C807.574,352.496,823.51,360.495,823.51,360.495C824.118,357.807,824.982,355.216,825.558,352.496C825.558,352.496,825.558,352.496,825.558,352.496M511.994,608.492C640.92,608.492,751.99,531.693,802.614,421.583C802.614,421.583,774.102,407.343,774.102,407.343C728.791,507.022,628.632,576.493,511.994,576.493C374.971,576.493,260.509,480.718,231.357,352.496C231.357,352.496,198.461,352.496,198.461,352.496C228.189,498.382,357.467,608.492,511.994,608.492C511.994,608.492,511.994,608.492,511.994,608.492M658.424,352.496C633.688,408.911,577.433,448.494,511.994,448.494C446.554,448.494,390.331,408.911,365.563,352.496C365.563,352.496,331.196,352.496,331.196,352.496C357.627,426.927,428.571,480.494,511.994,480.494C590.873,480.494,658.808,432.623,688.247,364.431C688.247,364.431,664.44,352.496,664.44,352.496C664.44,352.496,658.424,352.496,658.424,352.496C658.424,352.496,658.424,352.496,658.424,352.496M511.994,384.495C483.738,384.495,458.554,371.983,440.954,352.496C440.954,352.496,401.787,352.496,401.787,352.496C423.995,390.543,464.826,416.495,511.994,416.495C559.129,416.495,599.992,390.543,622.168,352.496C622.168,352.496,582.969,352.496,582.969,352.496C565.433,371.983,540.249,384.495,511.994,384.495C511.994,384.495,511.994,384.495,511.994,384.495M511.994,512.494C410.715,512.494,325.052,444.91,297.436,352.496C297.436,352.496,264.413,352.496,264.413,352.496C292.956,462.702,392.955,544.493,511.994,544.493C615.864,544.493,705.367,482.158,745.431,393.007C745.431,393.007,716.855,378.735,716.855,378.735C682.039,457.358,603.352,512.494,511.994,512.494C511.994,512.494,511.994,512.494,511.994,512.494M831.989,128.498C831.989,128.498,831.989,80.499,831.989,80.499C831.989,71.667,824.79,64.499,815.99,64.499C815.99,64.499,207.997,64.499,207.997,64.499C199.165,64.499,191.998,71.667,191.998,80.499C191.998,80.499,191.998,128.498,191.998,128.498C191.998,128.498,63.999,272.497,63.999,272.497C63.999,281.328,71.167,288.496,79.999,288.496C79.999,288.496,159.998,288.496,159.998,288.496C159.998,288.496,191.998,288.496,191.998,288.496C191.998,288.496,223.997,288.496,223.997,288.496C223.997,288.496,255.997,288.496,255.997,288.496C255.997,288.496,287.996,288.496,287.996,288.496C287.996,288.496,319.996,288.496,319.996,288.496C319.996,288.496,351.996,288.496,351.996,288.496C351.996,288.496,383.995,288.496,383.995,288.496C383.995,288.496,415.995,288.496,415.995,288.496C415.995,288.496,607.992,288.496,607.992,288.496C607.992,288.496,639.992,288.496,639.992,288.496C639.992,288.496,671.991,288.496,671.991,288.496C671.991,288.496,703.991,288.496,703.991,288.496C703.991,288.496,735.991,288.496,735.991,288.496C735.991,288.496,767.99,288.496,767.99,288.496C767.99,288.496,799.99,288.496,799.99,288.496C799.99,288.496,831.989,288.496,831.989,288.496C831.989,288.496,863.989,288.496,863.989,288.496C863.989,288.496,943.988,288.496,943.988,288.496C952.788,288.496,959.988,281.328,959.988,272.497C959.988,272.497,831.989,128.498,831.989,128.498C831.989,128.498,831.989,128.498,831.989,128.498M255.261,649.708C255.357,649.516,255.421,649.324,255.517,649.132C255.517,649.132,255.549,649.132,255.581,649.132C258.237,644.012,263.549,640.492,269.757,640.492C278.62,640.492,285.82,647.724,285.82,656.588C285.82,657.964,285.596,659.308,285.244,660.588C285.308,660.812,285.308,661.004,285.244,661.228C273.245,689.451,284.636,720.427,298.652,753.77C313.788,789.802,330.012,829.801,312.156,870.473C309.884,876.329,304.22,880.489,297.564,880.489C288.892,880.489,281.884,873.449,281.884,864.809C281.884,862.889,282.268,861.097,282.908,859.401C282.908,859.337,282.908,859.273,282.94,859.209C282.972,859.113,283.004,859.017,283.036,858.921C283.1,858.793,283.132,858.665,283.196,858.537C296.124,829.449,283.612,799.626,269.501,765.962C254.589,730.475,238.077,691.147,254.685,651.052C254.877,650.572,255.037,650.156,255.261,649.708C255.261,649.708,255.261,649.708,255.261,649.708M644.92,654.38C645.048,654.188,645.112,653.996,645.176,653.804C645.176,653.804,645.24,653.804,645.24,653.804C647.928,648.684,653.24,645.132,659.416,645.132C668.28,645.132,675.543,652.364,675.543,661.228C675.543,662.604,675.287,663.948,674.967,665.228C675.031,665.452,675.031,665.644,674.903,665.868C662.968,694.091,674.327,725.067,688.343,758.41C703.479,794.442,719.703,834.441,701.847,875.113C699.543,881.001,693.911,885.129,687.223,885.129C678.583,885.129,671.543,878.089,671.543,869.449C671.543,867.529,671.991,865.737,672.599,864.041C672.599,863.977,672.599,863.913,672.599,863.849C672.663,863.753,672.663,863.657,672.727,863.561C672.791,863.433,672.855,863.305,672.855,863.177C685.783,834.089,673.303,804.266,659.16,770.602C644.28,735.115,627.8,695.755,644.408,655.66C644.568,655.244,644.728,654.796,644.92,654.38C644.92,654.38,644.92,654.38,644.92,654.38M480.602,793.706C480.698,793.514,480.762,793.322,480.858,793.13C480.858,793.13,480.89,793.13,480.922,793.13C483.61,788.01,488.922,784.458,495.098,784.458C503.962,784.458,511.162,791.69,511.162,800.554C511.162,801.93,510.938,803.274,510.586,804.554C510.65,804.778,510.65,804.97,510.586,805.194C498.586,833.417,509.978,864.393,523.993,897.737C539.129,933.768,555.353,973.768,537.497,1014.439C535.193,1020.327,529.561,1024.487,522.873,1024.487C514.233,1024.487,507.194,1017.447,507.194,1008.807C507.194,1006.887,507.578,1005.095,508.218,1003.399C508.218,1003.335,508.218,1003.271,508.25,1003.207C508.282,1003.111,508.314,1003.015,508.346,1002.919C508.378,1002.791,508.442,1002.663,508.474,1002.535C521.401,973.448,508.89,943.624,494.778,909.96C479.866,874.473,463.354,835.113,479.994,795.018C480.218,794.57,480.378,794.154,480.602,793.706C480.602,793.706,480.602,793.706,480.602,793.706"/>
		</symbol>
	<symbol id="gD" viewBox="0 0 1024 1024">
		<path transform='scale( 1 -1 ) translate( 0 -1000 )' id="D" d="M512,1024C317.568,1024,160,866.432,160,672C160,543.008,278.016,406.304,320.992,286.24C385.088,107.2,377.984,0,512,0C648,0,638.88,106.688,703.008,285.504C746.112,405.824,864,544,864,672C864,866.432,706.368,1024,512,1024C512,1024,512,1024,512,1024M594.944,154.368C594.944,154.368,436.288,134.56,436.288,134.56C430.624,150.944,424.544,170.112,417.152,195.136C417.056,195.456,416.928,195.808,416.864,196.128C416.864,196.128,614.88,220.864,614.88,220.864C612.064,211.424,609.056,201.504,606.432,192.608C602.24,178.24,598.496,165.76,594.944,154.368C594.944,154.368,594.944,154.368,594.944,154.368M407.552,226.944C401.728,246.208,395.168,266.496,387.872,288C387.872,288,636.384,288,636.384,288C632.448,276.512,628.512,264.992,625.12,254.112C625.12,254.112,407.552,226.944,407.552,226.944C407.552,226.944,407.552,226.944,407.552,226.944M512,64C479.584,64,464.672,67.744,448.096,104C448.096,104,583.712,120.992,583.712,120.992C564.064,68.064,549.76,64,512,64C512,64,512,64,512,64M661.504,352C661.504,352,362.848,352,362.848,352C346.912,386.56,327.776,421.12,308.896,454.944C267.136,529.664,224,606.944,224,672C224,830.816,353.184,960,512,960C670.816,960,800,830.816,800,672C800,607.424,756.8,529.728,715.008,454.56C696.32,420.864,677.312,386.368,661.504,352C661.504,352,661.504,352,661.504,352M512,864C406.112,864,320,777.888,320,672C320,663.168,327.168,656,336,656C344.832,656,352,663.168,352,672C352,760.224,423.776,832,512,832C520.832,832,528,839.168,528,848C528,856.832,520.8,864,512,864C512,864,512,864,512,864"/>
		</symbol>
	<symbol id='triangle' viewBox='0 0 100 100'>
		<path fill='purple' stroke='black' stroke-width='5' d='M 0 100 L 80 80 50 50 50 20 Z'/>
		</symbol>
	<symbol id="g國" viewBox="0 -800 4096 4896"><title>國</title>
		<path d='M 50 50 L 4046 50 4046 4046 50 4046 Z' fill='transparent' stroke='blue' stroke-width='100'/>
		<path transform='scale( 1 -1 ) translate( 0 -3296 )' d="M1492.530 938.645C1492.530 892.135 1488.301 854.082 1475.617 824.485C1462.933 794.888 1437.564 799.116 1399.511 845.626C1361.458 892.135 1344.545 942.873 1340.317 1002.067C1310.720 1205.017 1268.439 1369.914 1213.473 1492.530C1196.561 1530.583 1192.332 1551.723 1205.017 1564.408C1213.473 1577.092 1230.386 1577.092 1259.982 1568.636C1310.720 1560.180 1344.545 1551.723 1365.686 1539.039C1462.933 1560.180 1539.039 1577.092 1598.233 1598.233C1670.111 1615.145 1729.305 1640.514 1784.270 1678.567C1822.324 1708.164 1864.605 1708.164 1911.114 1682.795C1966.080 1644.742 2016.818 1615.145 2063.327 1585.548C2118.293 1555.951 2118.293 1513.670 2063.327 1454.476C2012.589 1407.967 1966.080 1293.807 1919.571 1120.454C1974.536 1090.857 2004.133 1069.717 2004.133 1048.576C2004.133 1027.435 1991.449 1014.751 1966.080 1010.523C1784.270 989.382 1653.198 968.242 1572.864 947.101C1543.267 938.645 1517.898 934.417 1492.530 938.645ZM1720.849 1133.139C1733.533 1137.367 1741.989 1141.595 1754.674 1141.595C1775.814 1230.386 1792.727 1310.720 1809.639 1378.370C1822.324 1446.020 1822.324 1484.073 1809.639 1496.758C1796.955 1513.670 1767.358 1517.898 1712.392 1509.442C1636.286 1496.758 1555.951 1479.845 1471.389 1458.705C1458.705 1454.476 1446.020 1450.248 1433.336 1446.020C1437.564 1386.826 1450.248 1255.754 1479.845 1048.576C1547.495 1069.717 1627.830 1095.085 1720.849 1133.139ZM1166.964 613.079C1226.157 613.079 1272.667 617.307 1310.720 625.763C1589.777 714.554 1839.236 799.116 2054.871 875.223C2084.468 883.679 2101.380 883.679 2114.065 870.995C2114.065 849.854 2101.380 832.941 2071.783 811.801C2042.186 782.204 2008.361 761.063 1961.852 739.923C1847.692 680.729 1733.533 621.535 1619.373 562.341C1539.039 524.288 1467.161 477.779 1403.739 418.585C1374.142 401.672 1353.001 393.216 1331.861 397.444C1259.982 435.497 1200.789 469.322 1145.823 503.147C1128.910 524.288 1120.454 545.429 1124.682 575.026C1124.682 596.166 1137.367 608.851 1166.964 613.079ZM2384.665 993.610C2325.471 1124.682 2266.277 1285.351 2207.083 1479.845C2156.346 1653.198 2114.065 1822.324 2080.239 1991.449C1877.289 1944.939 1699.708 1902.658 1547.495 1856.149C1500.986 1835.008 1458.705 1835.008 1424.879 1851.921C1386.826 1873.061 1357.229 1889.974 1327.633 1911.114C1272.667 1949.167 1281.123 1974.536 1344.545 1987.221C1450.248 2004.133 1547.495 2021.046 1640.514 2037.958C1771.586 2059.099 1906.886 2092.924 2050.643 2139.433L2050.643 2156.346C2033.730 2240.908 2016.818 2312.787 1995.677 2371.980C1961.852 2460.771 1940.711 2503.052 1932.255 2507.281C1885.746 2553.790 1889.974 2583.387 1940.711 2600.299L1982.993 2604.527C2012.589 2600.299 2050.643 2587.615 2101.380 2558.018C2156.346 2532.649 2190.171 2511.509 2202.855 2490.368C2215.540 2469.227 2211.311 2426.946 2190.171 2367.752C2185.943 2312.787 2190.171 2249.365 2198.627 2181.715C2266.277 2207.083 2338.155 2228.224 2410.034 2249.365C2456.543 2262.049 2503.052 2266.277 2545.334 2253.593C2579.159 2240.908 2604.527 2232.452 2621.440 2223.996C2676.406 2202.855 2706.003 2181.715 2706.003 2152.118C2684.862 2122.521 2663.721 2105.608 2638.353 2109.836C2528.421 2088.696 2405.805 2067.555 2274.733 2037.958C2253.593 2033.730 2236.680 2029.502 2228.224 2025.274C2291.646 1720.849 2350.840 1496.758 2410.034 1353.001C2431.174 1285.351 2456.543 1221.929 2486.140 1162.735C2528.421 1251.526 2562.246 1331.861 2587.615 1407.967C2629.896 1539.039 2642.581 1661.655 2625.668 1780.042C2621.440 1818.095 2634.124 1839.236 2667.949 1851.921C2689.090 1856.149 2722.915 1847.692 2777.881 1818.095C2849.759 1780.042 2896.268 1746.217 2913.181 1720.849C2925.865 1695.480 2925.865 1674.339 2908.953 1653.198C2879.356 1589.777 2849.759 1526.355 2820.162 1467.161C2744.056 1259.982 2663.721 1095.085 2583.387 972.470C2591.843 968.242 2596.071 959.785 2600.299 951.329C2667.949 845.626 2735.599 756.835 2803.250 693.413C2841.303 655.360 2866.671 638.447 2883.584 642.676C2908.953 646.904 2951.234 731.466 3010.428 892.135C3031.569 947.101 3052.709 972.470 3069.622 968.242C3086.534 964.013 3090.762 930.188 3082.306 870.995C3078.078 816.029 3078.078 744.151 3082.306 659.588C3086.534 570.797 3086.534 503.147 3090.762 456.638C3111.903 359.391 3111.903 304.425 3094.990 283.285C3082.306 262.144 3056.937 249.460 3023.112 253.688C2989.287 249.460 2942.778 274.828 2883.584 325.566C2803.250 384.760 2718.687 473.550 2629.896 587.710C2574.931 655.360 2524.193 731.466 2473.455 816.029C2418.490 752.607 2359.296 693.413 2291.646 634.219C2169.030 528.516 2037.958 443.954 1894.202 384.760C1868.833 372.075 1847.692 367.847 1830.780 372.075C1813.867 380.532 1813.867 393.216 1830.780 414.357C2029.502 579.254 2169.030 714.554 2245.137 811.801C2295.874 875.223 2342.383 934.417 2384.665 993.610ZM2651.037 2401.577C2591.843 2448.087 2558.018 2486.140 2549.562 2515.737C2545.334 2541.106 2545.334 2558.018 2558.018 2570.702C2570.702 2574.931 2596.071 2574.931 2634.124 2566.474C2714.459 2549.562 2790.565 2528.421 2858.215 2498.824C2930.093 2464.999 2968.147 2426.946 2980.831 2380.437C3001.972 2317.015 3006.200 2266.277 2993.515 2232.452C2980.831 2202.855 2963.918 2190.171 2938.550 2185.943C2908.953 2181.715 2875.128 2194.399 2841.303 2223.996C2773.653 2287.418 2710.231 2346.612 2651.037 2401.577ZM1010.523-181.810C997.838-219.863 980.926-257.916 959.785-291.741C921.732-329.794 887.907-329.794 858.310-287.513C816.029-232.547 782.204-164.897 752.607-84.563C735.694-4.228 739.923 84.563 769.519 186.038C841.398 443.954 879.451 676.501 892.135 892.135C930.188 1412.195 942.873 1822.324 930.188 2122.521C930.188 2312.787 909.048 2456.543 862.538 2549.562C845.626 2591.843 832.941 2634.124 820.257 2680.634C807.573 2718.687 807.573 2744.056 828.713 2760.968C866.766 2773.653 900.591 2773.653 934.417 2756.740C976.698 2735.599 1010.523 2718.687 1040.120 2697.546C1052.804 2693.318 1065.489 2684.862 1078.173 2672.178C1158.507 2667.949 1243.070 2672.178 1327.633 2684.862C1847.692 2777.881 2325.471 2849.759 2756.740 2904.725C2904.725 2925.865 3006.200 2947.006 3056.937 2972.375C3078.078 2985.059 3099.219 2989.287 3128.815 2989.287C3166.869 2997.743 3264.116 2951.234 3416.328 2853.987C3513.575 2794.793 3560.085 2748.284 3564.313 2710.231C3564.313 2684.862 3551.628 2651.037 3522.031 2608.756C3496.663 2579.159 3475.522 2541.106 3458.610 2490.368C3445.925 2418.490 3445.925 2215.540 3458.610 1873.061C3471.294 1361.458 3488.206 959.785 3509.347 659.588C3564.313 245.231 3576.997-12.684 3547.400-114.159C3534.716-219.863 3513.575-304.425 3475.522-363.619C3454.381-418.585 3429.013-448.182 3390.959-452.410C3348.678-452.410 3314.853-422.813 3285.256-363.619C3255.659-291.741 3217.606-228.319 3171.097-169.125C3133.044-114.159 3103.447-76.106 3082.306-50.738C2173.258-67.650 1500.986-109.931 1073.945-177.581C1052.804-181.810 1031.663-181.810 1010.523-181.810ZM3090.762 147.985L3090.762 147.985C3175.325 84.563 3217.606 38.053 3221.834 8.456C3230.291 21.141 3238.747 33.825 3247.203 54.966C3276.800 109.931 3285.256 207.178 3272.572 342.478C3268.344 465.094 3264.116 786.432 3251.431 1310.720C3247.203 1695.480 3230.291 2067.555 3192.237 2435.402C3179.553 2591.843 3158.412 2684.862 3128.815 2718.687C3107.675 2748.284 3065.394 2765.196 2997.743 2760.968C2663.721 2735.599 2274.733 2684.862 1835.008 2612.984C1488.301 2549.562 1293.807 2515.737 1247.298 2503.052C1209.245 2490.368 1175.420 2481.912 1145.823 2473.455L1145.823 2456.543C1133.139 2371.980 1103.542 1674.339 1057.032 367.847C1052.804 219.863 1044.348 93.019 1031.663-8.456C1577.092 12.684 2185.943 76.106 2862.443 177.581C2959.690 194.494 3035.797 186.038 3090.762 147.985Z"/>
		</symbol>
	<symbol id="g亥" viewBox="0 -800 4096 4896"><title>亥</title>
		<path d='M 50 50 L 4046 50 4046 4046 50 4046 Z' fill='transparent' stroke='blue' stroke-width='100'/>
		<path transform='scale( 1 -1 ) translate( 0 -3296 )' d="M549.161 1891.097L693.677 2171.871Q751.484 2142.968 933.161 2035.613L933.161 2035.613L1118.968 1928.258L1672.258 2460.903L408.774 2469.161L408.774 2787.097L1895.226 2787.097L1903.484 3125.677L2237.935 3125.677L2237.935 2791.226L3712 2787.097L3712 2469.161L2134.710 2469.161Q1928.258 2246.194 1362.581 1734.194L1362.581 1734.194L1829.161 1374.968Q2213.161 1651.613 2547.613 2283.355L2547.613 2283.355Q2601.290 2270.968 2849.032 2176L2849.032 2176Q2448.516 1040.516 507.871 421.161L507.871 421.161L330.323 730.839Q953.806 904.258 1544.258 1185.032L1544.258 1185.032Q1131.355 1560.774 549.161 1862.194L549.161 1862.194L549.161 1891.097ZM3505.548 1758.968L3505.548 1742.452Q3146.323 1057.032 2799.484 755.613L2799.484 755.613Q3418.839 227.097 3773.935-128L3773.935-128Q3662.452-235.355 3530.323-384L3530.323-384Q3142.194 37.161 2580.645 557.419L2580.645 557.419Q1783.742-24.774 619.355-371.613L619.355-371.613L450.065-49.548L1226.323 185.806Q1895.226 388.129 2401.032 825.806Q2906.839 1263.484 3208.258 1870.452L3208.258 1870.452L3505.548 1758.968Z"/>
		</symbol>

  <use fill='yellow' xlink:href="#gA"/>
  <use xlink:href="#g國"/>
  <use xlink:href="#g亥"/>
  <use xlink:href="#triangle"/>
  <!-- <use fill="#c00" xlink:href="#xA"/> -->
  <!-- <use transform='scale(0.1,-0.1)' href="#A"/> -->

</svg>
