<?xml version="1.0" standalone="no"?>
<svg xmlns="http://www.w3.org/2000/svg" xmlns:xlink="http://www.w3.org/1999/xlink">
	<symbol id="frame" viewBox="0 -800 4096 4896">
		<path d='M 50 50 L 4046 50 4046 4046 50 4046 Z' fill='#f6b600' stroke='black' stroke-width='100'/>
		</symbol>
	<symbol id="g-亥" viewBox="0 -800 4096 4896">
		<path transform='scale( 1 -1 ) translate( 0 -3296 )' d="M549.161 1891.097L693.677 2171.871Q751.484 2142.968 933.161 2035.613L933.161 2035.613L1118.968 1928.258L1672.258 2460.903L408.774 2469.161L408.774 2787.097L1895.226 2787.097L1903.484 3125.677L2237.935 3125.677L2237.935 2791.226L3712 2787.097L3712 2469.161L2134.710 2469.161Q1928.258 2246.194 1362.581 1734.194L1362.581 1734.194L1829.161 1374.968Q2213.161 1651.613 2547.613 2283.355L2547.613 2283.355Q2601.290 2270.968 2849.032 2176L2849.032 2176Q2448.516 1040.516 507.871 421.161L507.871 421.161L330.323 730.839Q953.806 904.258 1544.258 1185.032L1544.258 1185.032Q1131.355 1560.774 549.161 1862.194L549.161 1862.194L549.161 1891.097ZM3505.548 1758.968L3505.548 1742.452Q3146.323 1057.032 2799.484 755.613L2799.484 755.613Q3418.839 227.097 3773.935-128L3773.935-128Q3662.452-235.355 3530.323-384L3530.323-384Q3142.194 37.161 2580.645 557.419L2580.645 557.419Q1783.742-24.774 619.355-371.613L619.355-371.613L450.065-49.548L1226.323 185.806Q1895.226 388.129 2401.032 825.806Q2906.839 1263.484 3208.258 1870.452L3208.258 1870.452L3505.548 1758.968Z"/>
		</symbol>
  <use xlink:href="#frame"/>
  <!-- <use xlink:href="#g-亥"/> -->
</svg>
